{
    "accessors" : [
        {
            "bufferView" : 0, 
            "componentType" : 5125, 
            "count" : 592368, 
            "max" : [
                118308
            ], 
            "min" : [
                0
            ], 
            "type" : "SCALAR"
        }, 
        {
            "bufferView" : 1, 
            "componentType" : 5126, 
            "count" : 118309, 
            "max" : [
                1.9651485681533813, 
                4.661685943603516, 
                2.066652536392212
            ], 
            "min" : [
                -2.006357431411743, 
                -2.165354402450248e-07, 
                -2.059159517288208
            ], 
            "type" : "VEC3"
        }, 
        {
            "bufferView" : 2, 
            "componentType" : 5126, 
            "count" : 118309, 
            "max" : [
                0.999969482421875, 
                1.0, 
                0.999969482421875
            ], 
            "min" : [
                -0.999969482421875, 
                -0.999969482421875, 
                -0.999969482421875
            ], 
            "type" : "VEC3"
        }, 
        {
            "bufferView" : 3, 
            "componentType" : 5126, 
            "count" : 118309, 
            "max" : [
                0.9999638795852661, 
                0.9999996423721313, 
                0.999975323677063, 
                1.0
            ], 
            "min" : [
                -0.9999995231628418, 
                -0.9992348551750183, 
                -0.9999518990516663, 
                1.0
            ], 
            "type" : "VEC4"
        }, 
        {
            "bufferView" : 4, 
            "componentType" : 5126, 
            "count" : 118309, 
            "max" : [
                1.0, 
                1.0
            ], 
            "min" : [
                0.0, 
                0.0
            ], 
            "type" : "VEC2"
        }, 
        {
            "bufferView" : 5, 
            "componentType" : 5125, 
            "count" : 416280, 
            "max" : [
                277519
            ], 
            "min" : [
                0
            ], 
            "type" : "SCALAR"
        }, 
        {
            "bufferView" : 6, 
            "componentType" : 5126, 
            "count" : 277520, 
            "max" : [
                2.277600049972534, 
                4.965719699859619, 
                2.381601572036743
            ], 
            "min" : [
                -2.289886713027954, 
                0.2391701340675354, 
                -2.373337745666504
            ], 
            "type" : "VEC3"
        }, 
        {
            "bufferView" : 7, 
            "componentType" : 5126, 
            "count" : 277520, 
            "max" : [
                0.9999659657478333, 
                0.9999904036521912, 
                0.9999319911003113
            ], 
            "min" : [
                -0.9999839067459106, 
                -0.7330512404441833, 
                -0.9999438524246216
            ], 
            "type" : "VEC3"
        }, 
        {
            "bufferView" : 8, 
            "componentType" : 5126, 
            "count" : 277520, 
            "max" : [
                0.9999639987945557, 
                0.8645557165145874, 
                0.9999948740005493, 
                1.0
            ], 
            "min" : [
                -0.9999514818191528, 
                -0.8646481037139893, 
                -0.9999583959579468, 
                1.0
            ], 
            "type" : "VEC4"
        }, 
        {
            "bufferView" : 9, 
            "componentType" : 5126, 
            "count" : 277520, 
            "max" : [
                0.5149999856948853, 
                1.0
            ], 
            "min" : [
                0.48500001430511475, 
                0.0
            ], 
            "type" : "VEC2"
        }
    ], 
    "asset" : {
        "generator" : "Khronos Blender glTF 2.0 exporter", 
        "version" : "2.0"
    }, 
    "bufferViews" : [
        {
            "buffer" : 0, 
            "byteLength" : 2369472, 
            "byteOffset" : 0, 
            "target" : 34963
        }, 
        {
            "buffer" : 0, 
            "byteLength" : 1419708, 
            "byteOffset" : 2369472, 
            "target" : 34962
        }, 
        {
            "buffer" : 0, 
            "byteLength" : 1419708, 
            "byteOffset" : 3789180, 
            "target" : 34962
        }, 
        {
            "buffer" : 0, 
            "byteLength" : 1892944, 
            "byteOffset" : 5208888, 
            "target" : 34962
        }, 
        {
            "buffer" : 0, 
            "byteLength" : 946472, 
            "byteOffset" : 7101832, 
            "target" : 34962
        }, 
        {
            "buffer" : 0, 
            "byteLength" : 1665120, 
            "byteOffset" : 8048304, 
            "target" : 34963
        }, 
        {
            "buffer" : 0, 
            "byteLength" : 3330240, 
            "byteOffset" : 9713424, 
            "target" : 34962
        }, 
        {
            "buffer" : 0, 
            "byteLength" : 3330240, 
            "byteOffset" : 13043664, 
            "target" : 34962
        }, 
        {
            "buffer" : 0, 
            "byteLength" : 4440320, 
            "byteOffset" : 16373904, 
            "target" : 34962
        }, 
        {
            "buffer" : 0, 
            "byteLength" : 2220160, 
            "byteOffset" : 20814224, 
            "target" : 34962
        }
    ], 
    "buffers" : [
        {
            "byteLength" : 23034384, 
            "uri" : "anjasbabythesecond.bin"
        }
    ], 
    "cameras" : [
        {
            "name" : "Camera", 
            "perspective" : {
                "aspectRatio" : 1.7777777777777777, 
                "yfov" : 0.5033799372418416, 
                "zfar" : 100.0, 
                "znear" : 0.10000000149011612
            }, 
            "type" : "perspective"
        }
    ], 
    "materials" : [
        {
            "name" : "Material.001", 
            "pbrMetallicRoughness" : {
                "baseColorFactor" : [
                    0.0, 
                    0.24000003099441614, 
                    0.00876550075970095, 
                    1.0
                ], 
                "metallicFactor" : 0.0
            }
        }, 
        {
            "name" : "Material.002", 
            "pbrMetallicRoughness" : {
                "baseColorFactor" : [
                    0.16000001668930075, 
                    0.04877735151018725, 
                    0.0, 
                    1.0
                ], 
                "metallicFactor" : 0.0
            }
        }
    ], 
    "meshes" : [
        {
            "name" : "tree", 
            "primitives" : [
                {
                    "attributes" : {
                        "NORMAL" : 2, 
                        "POSITION" : 1, 
                        "TANGENT" : 3, 
                        "TEXCOORD_0" : 4
                    }, 
                    "indices" : 0, 
                    "material" : 1
                }
            ]
        }, 
        {
            "name" : "leaves.004", 
            "primitives" : [
                {
                    "attributes" : {
                        "NORMAL" : 7, 
                        "POSITION" : 6, 
                        "TANGENT" : 8, 
                        "TEXCOORD_0" : 9
                    }, 
                    "indices" : 5, 
                    "material" : 0
                }
            ]
        }
    ], 
    "nodes" : [
        {
            "camera" : 0, 
            "name" : "Correction_Camera", 
            "rotation" : [
                -0.7071067690849304, 
                -0.0, 
                0.0, 
                0.7071067690849304
            ]
        }, 
        {
            "children" : [
                0
            ], 
            "name" : "Camera", 
            "rotation" : [
                0.483536034822464, 
                0.33687159419059753, 
                -0.20870360732078552, 
                0.7804827094078064
            ], 
            "translation" : [
                7.481131553649902, 
                5.34366512298584, 
                6.5076398849487305
            ]
        }, 
        {
            "name" : "envelope.005"
        }, 
        {
            "name" : "Lamp", 
            "rotation" : [
                0.16907575726509094, 
                0.7558802962303162, 
                -0.27217137813568115, 
                0.570947527885437
            ], 
            "scale" : [
                1.0, 
                1.0, 
                0.9999999403953552
            ], 
            "translation" : [
                4.076245307922363, 
                5.903861999511719, 
                -1.0054539442062378
            ]
        }, 
        {
            "mesh" : 1, 
            "name" : "leaves.004"
        }, 
        {
            "name" : "Sun", 
            "translation" : [
                -0.3645394742488861, 
                1.2402935028076172, 
                -0.30265966057777405
            ]
        }, 
        {
            "children" : [
                2, 
                4
            ], 
            "mesh" : 0, 
            "name" : "tree.004", 
            "scale" : [
                0.24999961256980896, 
                0.2500007450580597, 
                0.2500004768371582
            ]
        }
    ], 
    "scene" : 0, 
    "scenes" : [
        {
            "name" : "Scene", 
            "nodes" : [
                5, 
                6, 
                3, 
                1
            ]
        }
    ]
}
